# xmcd
# 
# Track frame offsets:
#   150
#   14811
#   31772
#   46729
#   62357
#   81363
#   99780
#   115831
#   129609
#   145482
#   162010
#   179554
#   194466
#   214115
# 
# Disc length: 3062 seconds
# 
# Revision: 2
# Processed by: cddbd v1.5.1PL2 Copyright (c) Steve Scherf et al.
# Submitted via: Synapstar 1.0 
# 
DISCID=bd0bf40e
DTITLE=Various Artist - SD091
DYEAR=1900
DGENRE=Country
TTITLE0=Tim McGraw - Cowboy In Me, The
TTITLE1=Carolyn Dawn Johnson - I Don't Want You To Go
TTITLE2=Toby Keith - My List
TTITLE3=Reba McEntire - Sweet Music Man
TTITLE4=Travis Tritt - Modern Day Bonnie and Clyde
TTITLE5=Lonestar - Not A Day Goes By
TTITLE6=Trick Pony - Just What I Do
TTITLE7=Emerson Drive - I Should Be Sleeping
TTITLE8=Tommy Shane Steiner - What If She's An Angel
TTITLE9=Sawyer Brown - Circles
TTITLE10=Kevin Denney - That's Just Jessie
TTITLE11=Ty Herndon - Heather's Wall
TTITLE12=Shannon Brown - Baby I Lied
TTITLE13=Garth Brooks and Trisha Yearwood - Squeeze Me In
EXTD=MediaType: Karaoke CD+G Producer: StarDisc
EXTT0=
EXTT1=
EXTT2=
EXTT3=
EXTT4=
EXTT5=
EXTT6=
EXTT7=
EXTT8=
EXTT9=
EXTT10=
EXTT11=
EXTT12=
EXTT13=
PLAYORDER=
